<mxfile host="app.diagrams.net" agent="Mozilla/5.0 (Macintosh; Intel Mac OS X 10_15_7) AppleWebKit/537.36 (KHTML, like Gecko) Chrome/131.0.0.0 Safari/537.36" version="26.0.1">
  <diagram name="Page-1" id="5Zvd9ioT648ElrTKqOLQ">
    <mxGraphModel dx="2600" dy="2057" grid="1" gridSize="10" guides="1" tooltips="1" connect="1" arrows="1" fold="1" page="1" pageScale="1" pageWidth="850" pageHeight="1100" math="0" shadow="0">
      <root>
        <mxCell id="0" />
        <mxCell id="1" parent="0" />
        <mxCell id="2anBXokItZCELcTBdX1A-69" value="" style="strokeWidth=2;html=1;shape=mxgraph.flowchart.decision;whiteSpace=wrap;fillColor=#dae8fc;strokeColor=#6c8ebf;gradientColor=none;shadow=0;" vertex="1" parent="1">
          <mxGeometry x="755" y="590" width="100" height="100" as="geometry" />
        </mxCell>
        <mxCell id="2anBXokItZCELcTBdX1A-46" value="" style="rounded=1;whiteSpace=wrap;html=1;fillColor=#f5f5f5;fontColor=#333333;strokeColor=#666666;" vertex="1" parent="1">
          <mxGeometry x="280" y="-30" width="690" height="330" as="geometry" />
        </mxCell>
        <mxCell id="2anBXokItZCELcTBdX1A-18" style="edgeStyle=orthogonalEdgeStyle;rounded=0;orthogonalLoop=1;jettySize=auto;html=1;endArrow=none;endFill=0;dashed=1;strokeWidth=2;" edge="1" parent="1" source="2anBXokItZCELcTBdX1A-1">
          <mxGeometry relative="1" as="geometry">
            <mxPoint x="-130" y="801.7777506510416" as="targetPoint" />
          </mxGeometry>
        </mxCell>
        <mxCell id="2anBXokItZCELcTBdX1A-1" value="&lt;font style=&quot;font-size: 20px;&quot;&gt;Client&lt;/font&gt;" style="rounded=0;whiteSpace=wrap;html=1;fontFamily=Verdana;" vertex="1" parent="1">
          <mxGeometry x="-190" y="40" width="120" height="60" as="geometry" />
        </mxCell>
        <mxCell id="2anBXokItZCELcTBdX1A-19" style="edgeStyle=orthogonalEdgeStyle;rounded=0;orthogonalLoop=1;jettySize=auto;html=1;strokeWidth=2;endArrow=none;endFill=0;dashed=1;" edge="1" parent="1" source="2anBXokItZCELcTBdX1A-2">
          <mxGeometry relative="1" as="geometry">
            <mxPoint x="175" y="800" as="targetPoint" />
          </mxGeometry>
        </mxCell>
        <mxCell id="2anBXokItZCELcTBdX1A-2" value="&lt;font style=&quot;font-size: 20px;&quot;&gt;LineSDK&lt;/font&gt;" style="rounded=0;whiteSpace=wrap;html=1;fontFamily=Verdana;" vertex="1" parent="1">
          <mxGeometry x="110" y="40" width="130" height="60" as="geometry" />
        </mxCell>
        <mxCell id="2anBXokItZCELcTBdX1A-24" style="edgeStyle=orthogonalEdgeStyle;rounded=0;orthogonalLoop=1;jettySize=auto;html=1;strokeWidth=2;dashed=1;endArrow=none;endFill=0;" edge="1" parent="1" source="2anBXokItZCELcTBdX1A-8">
          <mxGeometry relative="1" as="geometry">
            <mxPoint x="1105" y="800.8888753255209" as="targetPoint" />
          </mxGeometry>
        </mxCell>
        <mxCell id="2anBXokItZCELcTBdX1A-8" value="&lt;font style=&quot;font-size: 20px;&quot;&gt;Line&lt;/font&gt;&lt;span style=&quot;font-size: 20px;&quot;&gt;API&lt;/span&gt;" style="rounded=0;whiteSpace=wrap;html=1;fontFamily=Verdana;" vertex="1" parent="1">
          <mxGeometry x="1040" y="40" width="130" height="60" as="geometry" />
        </mxCell>
        <mxCell id="2anBXokItZCELcTBdX1A-14" value="" style="group" vertex="1" connectable="0" parent="1">
          <mxGeometry x="340" y="10" width="230" height="260" as="geometry" />
        </mxCell>
        <mxCell id="2anBXokItZCELcTBdX1A-22" style="edgeStyle=orthogonalEdgeStyle;rounded=0;orthogonalLoop=1;jettySize=auto;html=1;strokeWidth=2;endArrow=none;endFill=0;dashed=1;" edge="1" parent="2anBXokItZCELcTBdX1A-14" source="2anBXokItZCELcTBdX1A-12">
          <mxGeometry relative="1" as="geometry">
            <mxPoint x="115" y="793.5555013020834" as="targetPoint" />
          </mxGeometry>
        </mxCell>
        <mxCell id="2anBXokItZCELcTBdX1A-12" value="" style="rounded=0;whiteSpace=wrap;html=1;" vertex="1" parent="2anBXokItZCELcTBdX1A-14">
          <mxGeometry width="230" height="260" as="geometry" />
        </mxCell>
        <mxCell id="2anBXokItZCELcTBdX1A-3" value="&lt;font style=&quot;font-size: 20px;&quot;&gt;MatchOk&lt;/font&gt;&lt;div&gt;&lt;font style=&quot;font-size: 20px;&quot;&gt;(from client)&lt;/font&gt;&lt;/div&gt;" style="rounded=0;whiteSpace=wrap;html=1;fontFamily=Verdana;" vertex="1" parent="2anBXokItZCELcTBdX1A-14">
          <mxGeometry x="20" y="20" width="190" height="90" as="geometry" />
        </mxCell>
        <mxCell id="2anBXokItZCELcTBdX1A-6" value="&lt;font style=&quot;font-size: 20px;&quot;&gt;MatchError&lt;/font&gt;&lt;div&gt;&lt;font style=&quot;font-size: 20px;&quot;&gt;(from client)&lt;/font&gt;&lt;/div&gt;" style="rounded=0;whiteSpace=wrap;html=1;fontFamily=Verdana;" vertex="1" parent="2anBXokItZCELcTBdX1A-14">
          <mxGeometry x="20" y="150" width="190" height="90" as="geometry" />
        </mxCell>
        <mxCell id="2anBXokItZCELcTBdX1A-15" value="" style="group" vertex="1" connectable="0" parent="1">
          <mxGeometry x="690" y="10" width="230" height="260" as="geometry" />
        </mxCell>
        <mxCell id="2anBXokItZCELcTBdX1A-13" value="" style="rounded=0;whiteSpace=wrap;html=1;" vertex="1" parent="2anBXokItZCELcTBdX1A-15">
          <mxGeometry width="230" height="260" as="geometry" />
        </mxCell>
        <mxCell id="2anBXokItZCELcTBdX1A-9" value="&lt;font style=&quot;font-size: 20px;&quot;&gt;CallOk&lt;/font&gt;&lt;div&gt;&lt;font style=&quot;font-size: 20px;&quot;&gt;(from LineAPI)&lt;/font&gt;&lt;/div&gt;" style="rounded=0;whiteSpace=wrap;html=1;fontFamily=Verdana;" vertex="1" parent="2anBXokItZCELcTBdX1A-15">
          <mxGeometry x="20" y="20" width="190" height="90" as="geometry" />
        </mxCell>
        <mxCell id="2anBXokItZCELcTBdX1A-10" value="&lt;font style=&quot;font-size: 20px;&quot;&gt;CallError&lt;/font&gt;&lt;div&gt;&lt;font style=&quot;font-size: 20px;&quot;&gt;(from LineAPI)&lt;/font&gt;&lt;/div&gt;" style="rounded=0;whiteSpace=wrap;html=1;fontFamily=Verdana;" vertex="1" parent="2anBXokItZCELcTBdX1A-15">
          <mxGeometry x="20" y="150" width="190" height="90" as="geometry" />
        </mxCell>
        <mxCell id="2anBXokItZCELcTBdX1A-25" style="edgeStyle=orthogonalEdgeStyle;rounded=0;orthogonalLoop=1;jettySize=auto;html=1;strokeWidth=2;endArrow=none;endFill=0;dashed=1;" edge="1" parent="1" source="2anBXokItZCELcTBdX1A-20">
          <mxGeometry relative="1" as="geometry">
            <mxPoint x="1375" y="801.7777506510416" as="targetPoint" />
          </mxGeometry>
        </mxCell>
        <mxCell id="2anBXokItZCELcTBdX1A-20" value="&lt;font style=&quot;font-size: 20px;&quot;&gt;Native Interface&lt;/font&gt;" style="rounded=0;whiteSpace=wrap;html=1;fontFamily=Verdana;" vertex="1" parent="1">
          <mxGeometry x="1260" y="40" width="230" height="60" as="geometry" />
        </mxCell>
        <mxCell id="2anBXokItZCELcTBdX1A-23" style="edgeStyle=orthogonalEdgeStyle;rounded=0;orthogonalLoop=1;jettySize=auto;html=1;strokeWidth=2;endArrow=none;endFill=0;dashed=1;exitX=0.5;exitY=1;exitDx=0;exitDy=0;" edge="1" parent="1" source="2anBXokItZCELcTBdX1A-13">
          <mxGeometry relative="1" as="geometry">
            <mxPoint x="805" y="800" as="targetPoint" />
            <mxPoint x="800" y="310" as="sourcePoint" />
          </mxGeometry>
        </mxCell>
        <mxCell id="2anBXokItZCELcTBdX1A-26" value="&lt;font face=&quot;Verdana&quot; style=&quot;font-size: 20px;&quot;&gt;Result Callback&lt;/font&gt;" style="text;html=1;align=center;verticalAlign=middle;whiteSpace=wrap;rounded=0;" vertex="1" parent="1">
          <mxGeometry x="340" y="-20" width="160" height="30" as="geometry" />
        </mxCell>
        <mxCell id="2anBXokItZCELcTBdX1A-41" style="edgeStyle=orthogonalEdgeStyle;rounded=0;orthogonalLoop=1;jettySize=auto;html=1;curved=0;exitX=1;exitY=0;exitDx=0;exitDy=5;exitPerimeter=0;strokeWidth=3;" edge="1" parent="1" source="2anBXokItZCELcTBdX1A-40">
          <mxGeometry relative="1" as="geometry">
            <mxPoint x="170" y="385" as="targetPoint" />
          </mxGeometry>
        </mxCell>
        <mxCell id="2anBXokItZCELcTBdX1A-40" value="" style="html=1;points=[[0,0,0,0,5],[0,1,0,0,-5],[1,0,0,0,5],[1,1,0,0,-5]];perimeter=orthogonalPerimeter;outlineConnect=0;targetShapes=umlLifeline;portConstraint=eastwest;newEdgeStyle={&quot;curved&quot;:0,&quot;rounded&quot;:0};strokeWidth=3;" vertex="1" parent="1">
          <mxGeometry x="-140" y="380" width="20" height="90" as="geometry" />
        </mxCell>
        <mxCell id="2anBXokItZCELcTBdX1A-45" value="&lt;font face=&quot;Verdana&quot; style=&quot;font-size: 20px;&quot;&gt;Request (Result Callback)&lt;/font&gt;" style="text;html=1;align=center;verticalAlign=middle;whiteSpace=wrap;rounded=0;" vertex="1" parent="1">
          <mxGeometry x="-120" y="360" width="270" height="30" as="geometry" />
        </mxCell>
        <mxCell id="2anBXokItZCELcTBdX1A-47" style="edgeStyle=orthogonalEdgeStyle;rounded=0;orthogonalLoop=1;jettySize=auto;html=1;exitX=1;exitY=0.5;exitDx=0;exitDy=0;entryX=0;entryY=0.5;entryDx=0;entryDy=0;startArrow=oval;startFill=1;endArrow=oval;endFill=1;strokeWidth=2;dashed=1;dashPattern=1 4;strokeColor=#0000FF;" edge="1" parent="1" source="2anBXokItZCELcTBdX1A-3" target="2anBXokItZCELcTBdX1A-9">
          <mxGeometry relative="1" as="geometry" />
        </mxCell>
        <mxCell id="2anBXokItZCELcTBdX1A-48" style="edgeStyle=orthogonalEdgeStyle;rounded=0;orthogonalLoop=1;jettySize=auto;html=1;exitX=1;exitY=0.5;exitDx=0;exitDy=0;entryX=0;entryY=0.5;entryDx=0;entryDy=0;strokeWidth=2;endArrow=oval;endFill=1;startArrow=oval;startFill=1;dashed=1;dashPattern=1 4;strokeColor=#0000FF;" edge="1" parent="1" source="2anBXokItZCELcTBdX1A-6" target="2anBXokItZCELcTBdX1A-10">
          <mxGeometry relative="1" as="geometry" />
        </mxCell>
        <mxCell id="2anBXokItZCELcTBdX1A-49" value="&lt;div&gt;&lt;font style=&quot;font-size: 20px;&quot;&gt;Json&lt;/font&gt;&lt;/div&gt;&lt;font style=&quot;font-size: 20px;&quot;&gt;Flatten&lt;/font&gt;" style="text;html=1;align=center;verticalAlign=middle;whiteSpace=wrap;rounded=0;fontFamily=Verdana;fontColor=#0000FF;" vertex="1" parent="1">
          <mxGeometry x="570" y="105" width="120" height="60" as="geometry" />
        </mxCell>
        <mxCell id="2anBXokItZCELcTBdX1A-51" style="edgeStyle=orthogonalEdgeStyle;rounded=0;orthogonalLoop=1;jettySize=auto;html=1;curved=0;exitX=1;exitY=0;exitDx=0;exitDy=5;exitPerimeter=0;strokeWidth=3;" edge="1" parent="1" source="2anBXokItZCELcTBdX1A-50">
          <mxGeometry relative="1" as="geometry">
            <mxPoint x="1100" y="475.3333333333335" as="targetPoint" />
          </mxGeometry>
        </mxCell>
        <mxCell id="2anBXokItZCELcTBdX1A-54" style="edgeStyle=orthogonalEdgeStyle;rounded=0;orthogonalLoop=1;jettySize=auto;html=1;curved=0;exitX=1;exitY=1;exitDx=0;exitDy=-5;exitPerimeter=0;strokeWidth=3;" edge="1" parent="1">
          <mxGeometry relative="1" as="geometry">
            <mxPoint x="1365" y="555" as="targetPoint" />
            <mxPoint x="180" y="555" as="sourcePoint" />
          </mxGeometry>
        </mxCell>
        <mxCell id="2anBXokItZCELcTBdX1A-50" value="" style="html=1;points=[[0,0,0,0,5],[0,1,0,0,-5],[1,0,0,0,5],[1,1,0,0,-5]];perimeter=orthogonalPerimeter;outlineConnect=0;targetShapes=umlLifeline;portConstraint=eastwest;newEdgeStyle={&quot;curved&quot;:0,&quot;rounded&quot;:0};strokeWidth=3;" vertex="1" parent="1">
          <mxGeometry x="165" y="470" width="20" height="90" as="geometry" />
        </mxCell>
        <mxCell id="2anBXokItZCELcTBdX1A-52" value="&lt;font face=&quot;Verdana&quot; style=&quot;font-size: 20px;&quot;&gt;Flatten Action&lt;/font&gt;" style="text;html=1;align=center;verticalAlign=middle;whiteSpace=wrap;rounded=0;" vertex="1" parent="1">
          <mxGeometry x="690" y="-20" width="150" height="30" as="geometry" />
        </mxCell>
        <mxCell id="2anBXokItZCELcTBdX1A-53" value="&lt;font face=&quot;Verdana&quot; style=&quot;font-size: 20px;&quot;&gt;Add&amp;nbsp;&lt;/font&gt;&lt;span style=&quot;font-size: 20px; font-family: Verdana; background-color: transparent; color: light-dark(rgb(0, 0, 0), rgb(255, 255, 255));&quot;&gt;Action&lt;/span&gt;" style="text;html=1;align=center;verticalAlign=middle;whiteSpace=wrap;rounded=0;" vertex="1" parent="1">
          <mxGeometry x="195" y="450" width="125" height="30" as="geometry" />
        </mxCell>
        <mxCell id="2anBXokItZCELcTBdX1A-57" value="&lt;font face=&quot;Verdana&quot; style=&quot;font-size: 20px;&quot;&gt;Request (Flatten Action)&lt;/font&gt;" style="text;html=1;align=center;verticalAlign=middle;whiteSpace=wrap;rounded=0;" vertex="1" parent="1">
          <mxGeometry x="195" y="530" width="250" height="30" as="geometry" />
        </mxCell>
        <mxCell id="2anBXokItZCELcTBdX1A-62" style="edgeStyle=orthogonalEdgeStyle;rounded=0;orthogonalLoop=1;jettySize=auto;html=1;curved=0;exitX=0;exitY=0;exitDx=0;exitDy=5;exitPerimeter=0;strokeWidth=3;" edge="1" parent="1" source="2anBXokItZCELcTBdX1A-58">
          <mxGeometry relative="1" as="geometry">
            <mxPoint x="1110" y="625" as="targetPoint" />
          </mxGeometry>
        </mxCell>
        <mxCell id="2anBXokItZCELcTBdX1A-58" value="" style="html=1;points=[[0,0,0,0,5],[0,1,0,0,-5],[1,0,0,0,5],[1,1,0,0,-5]];perimeter=orthogonalPerimeter;outlineConnect=0;targetShapes=umlLifeline;portConstraint=eastwest;newEdgeStyle={&quot;curved&quot;:0,&quot;rounded&quot;:0};strokeWidth=3;" vertex="1" parent="1">
          <mxGeometry x="1365" y="620" width="20" height="90" as="geometry" />
        </mxCell>
        <mxCell id="2anBXokItZCELcTBdX1A-63" value="&lt;font face=&quot;Verdana&quot; style=&quot;font-size: 20px;&quot;&gt;Pop &lt;/font&gt;&lt;span style=&quot;font-size: 20px; font-family: Verdana; background-color: transparent; color: light-dark(rgb(0, 0, 0), rgb(255, 255, 255));&quot;&gt;Action&lt;/span&gt;" style="text;html=1;align=center;verticalAlign=middle;whiteSpace=wrap;rounded=0;" vertex="1" parent="1">
          <mxGeometry x="1230" y="600" width="135" height="30" as="geometry" />
        </mxCell>
        <mxCell id="2anBXokItZCELcTBdX1A-67" value="&lt;font face=&quot;Verdana&quot; style=&quot;font-size: 20px;&quot;&gt;Response (Result&amp;nbsp;&lt;/font&gt;&lt;span style=&quot;font-family: Verdana; font-size: 20px; text-wrap-mode: wrap; background-color: rgb(251, 251, 251);&quot;&gt;Callback)&lt;/span&gt;" style="html=1;verticalAlign=bottom;startArrow=circle;startFill=1;endArrow=open;startSize=6;endSize=8;curved=0;rounded=0;strokeWidth=3;" edge="1" parent="1">
          <mxGeometry width="80" relative="1" as="geometry">
            <mxPoint x="810" y="640" as="sourcePoint" />
            <mxPoint x="460" y="640" as="targetPoint" />
            <mxPoint as="offset" />
          </mxGeometry>
        </mxCell>
        <mxCell id="2anBXokItZCELcTBdX1A-71" value="&lt;font face=&quot;Verdana&quot; style=&quot;font-size: 20px; color: rgb(0, 0, 255);&quot;&gt;JsonFlatten&lt;/font&gt;" style="text;html=1;align=center;verticalAlign=middle;whiteSpace=wrap;rounded=0;" vertex="1" parent="1">
          <mxGeometry x="775" y="690" width="60" height="30" as="geometry" />
        </mxCell>
        <mxCell id="2anBXokItZCELcTBdX1A-76" style="edgeStyle=orthogonalEdgeStyle;rounded=0;orthogonalLoop=1;jettySize=auto;html=1;endArrow=classic;endFill=1;strokeColor=#0000FF;strokeWidth=2;" edge="1" parent="1" source="2anBXokItZCELcTBdX1A-75">
          <mxGeometry relative="1" as="geometry">
            <mxPoint x="460" y="750" as="targetPoint" />
          </mxGeometry>
        </mxCell>
        <mxCell id="2anBXokItZCELcTBdX1A-77" style="edgeStyle=orthogonalEdgeStyle;rounded=0;orthogonalLoop=1;jettySize=auto;html=1;startArrow=classic;startFill=1;endArrow=none;endFill=0;strokeColor=#0000FF;strokeWidth=2;" edge="1" parent="1" source="2anBXokItZCELcTBdX1A-75">
          <mxGeometry relative="1" as="geometry">
            <mxPoint x="1100" y="750" as="targetPoint" />
          </mxGeometry>
        </mxCell>
        <mxCell id="2anBXokItZCELcTBdX1A-75" value="" style="verticalLabelPosition=bottom;verticalAlign=top;html=1;shape=mxgraph.flowchart.parallel_mode;pointerEvents=1;fillColor=default;strokeColor=#6c8ebf;strokeWidth=3;" vertex="1" parent="1">
          <mxGeometry x="758" y="730" width="95" height="40" as="geometry" />
        </mxCell>
        <mxCell id="2anBXokItZCELcTBdX1A-79" value="&lt;span style=&quot;font-size: 20px;&quot;&gt;Json String&lt;/span&gt;" style="text;html=1;align=center;verticalAlign=middle;whiteSpace=wrap;rounded=0;fontFamily=Verdana;fontColor=#0000FF;" vertex="1" parent="1">
          <mxGeometry x="920" y="750" width="120" height="30" as="geometry" />
        </mxCell>
        <mxCell id="2anBXokItZCELcTBdX1A-80" value="&lt;span style=&quot;font-size: 20px;&quot;&gt;Response&amp;lt;T&amp;gt; •&amp;nbsp;Error&lt;/span&gt;" style="text;html=1;align=center;verticalAlign=middle;whiteSpace=wrap;rounded=0;fontFamily=Verdana;fontColor=#0000FF;" vertex="1" parent="1">
          <mxGeometry x="500" y="750" width="230" height="30" as="geometry" />
        </mxCell>
        <mxCell id="2anBXokItZCELcTBdX1A-64" value="&lt;font face=&quot;Verdana&quot; style=&quot;font-size: 20px;&quot;&gt;Response (Flatten&amp;nbsp;&lt;/font&gt;&lt;span style=&quot;font-family: Verdana; font-size: 20px; text-wrap-mode: wrap; background-color: rgb(251, 251, 251);&quot;&gt;Action)&lt;/span&gt;" style="html=1;verticalAlign=bottom;startArrow=circle;startFill=1;endArrow=open;startSize=6;endSize=8;curved=0;rounded=0;strokeWidth=3;" edge="1" parent="1">
          <mxGeometry width="80" relative="1" as="geometry">
            <mxPoint x="1110" y="630" as="sourcePoint" />
            <mxPoint x="810" y="630" as="targetPoint" />
            <mxPoint as="offset" />
          </mxGeometry>
        </mxCell>
      </root>
    </mxGraphModel>
  </diagram>
</mxfile>
